<?xml version="1.0" standalone="no"?>
<!DOCTYPE svg PUBLIC "-//W3C//DTD SVG 20010904//EN"
 "http://www.w3.org/TR/2001/REC-SVG-20010904/DTD/svg10.dtd">
<svg version="1.0" xmlns="http://www.w3.org/2000/svg"
 width="700.000000pt" height="700.000000pt" viewBox="0 0 700.000000 700.000000"
 preserveAspectRatio="xMidYMid meet">
<metadata>
Created by potrace 1.11, written by Peter Selinger 2001-2013
</metadata>
<g transform="translate(0.000000,700.000000) scale(0.100000,-0.100000)"
fill="#000000" stroke="none">
<path d="M2470 5837 c-76 -21 -372 -187 -470 -264 -54 -41 -187 -148 -196
-157 -6 -6 -35 -34 -65 -62 -364 -345 -610 -767 -728 -1253 -30 -120 -34 -144
-47 -236 -3 -27 -8 -58 -9 -67 -16 -83 -22 -404 -10 -522 29 -287 89 -532 195
-786 37 -89 139 -286 181 -347 16 -24 29 -47 29 -50 0 -21 222 -294 318 -391
207 -208 341 -312 570 -442 85 -48 99 -53 157 -53 53 -1 71 4 111 29 80 49
122 134 110 222 -12 87 -46 127 -167 197 -501 289 -849 750 -1005 1330 -33
124 -56 309 -58 481 -4 253 28 457 111 703 75 224 171 407 316 601 73 98 265
297 352 366 27 21 55 44 61 49 36 34 206 137 213 129 7 -7 29 -108 47 -214 3
-14 7 -32 9 -40 2 -8 7 -31 10 -50 3 -19 14 -75 25 -125 10 -49 22 -106 25
-125 3 -19 35 -181 71 -360 36 -179 68 -338 71 -355 3 -16 18 -93 33 -170 16
-77 31 -151 33 -165 3 -14 12 -59 20 -100 9 -41 18 -86 20 -100 3 -14 19 -95
36 -181 17 -85 33 -164 35 -175 2 -12 16 -79 30 -150 14 -71 27 -140 30 -154
2 -14 14 -70 25 -125 11 -55 23 -111 25 -125 3 -14 18 -92 35 -175 16 -82 33
-166 36 -185 3 -19 11 -55 16 -80 6 -25 19 -90 30 -145 10 -55 26 -134 34
-175 8 -41 18 -88 20 -105 3 -16 8 -37 10 -45 2 -8 7 -31 10 -50 3 -19 8 -42
10 -50 2 -8 7 -31 10 -50 29 -174 76 -253 185 -304 65 -30 178 -29 241 2 79
39 148 124 163 202 3 14 25 129 51 255 25 127 47 239 49 250 2 11 36 180 75
375 38 195 73 370 76 389 3 19 7 37 9 40 2 3 7 23 10 43 3 21 10 57 15 80 6
24 13 59 16 78 6 36 214 1084 267 1345 16 83 32 161 34 175 3 14 7 32 9 40 3
8 7 33 10 55 4 22 8 48 11 57 3 10 7 30 10 45 3 16 14 71 24 123 11 52 21 104
23 115 21 132 84 415 91 415 18 0 203 -130 296 -208 265 -223 460 -490 594
-814 60 -145 114 -336 131 -458 3 -25 8 -56 10 -70 12 -80 17 -171 17 -290 -1
-126 -3 -164 -17 -261 -3 -22 -8 -58 -11 -81 -11 -80 -72 -304 -109 -399 -119
-303 -282 -547 -521 -781 -38 -37 -80 -75 -93 -85 -13 -10 -38 -30 -56 -45
-32 -28 -203 -141 -313 -209 -49 -30 -64 -47 -87 -93 -24 -49 -27 -65 -22
-118 13 -143 156 -237 291 -191 75 26 278 155 425 273 141 112 351 324 421
424 8 12 20 27 27 35 60 60 243 378 312 541 48 113 114 316 137 425 50 232 59
324 59 600 -1 231 -13 356 -49 513 -42 181 -71 274 -125 411 -240 599 -695
1088 -1267 1363 -83 40 -94 43 -174 43 -67 0 -93 -5 -126 -22 -52 -28 -109
-86 -133 -138 -15 -33 -54 -208 -94 -425 -3 -14 -8 -36 -11 -50 -3 -14 -8 -36
-10 -50 -3 -14 -23 -117 -46 -230 -23 -113 -43 -216 -46 -230 -3 -14 -38 -194
-80 -400 -41 -206 -77 -388 -80 -405 -3 -16 -16 -86 -30 -155 -14 -69 -28
-136 -30 -150 -3 -14 -18 -90 -34 -170 -16 -80 -32 -157 -35 -172 -8 -44 -11
-60 -95 -481 -44 -219 -80 -407 -80 -417 0 -10 -4 -21 -8 -24 -7 -4 -22 64
-66 289 -6 32 -108 538 -112 560 -2 11 -7 34 -10 50 -2 17 -16 86 -31 155 -14
69 -27 134 -29 145 -1 11 -23 124 -49 250 -25 127 -48 241 -51 255 -3 14 -36
183 -75 375 -38 193 -72 362 -74 375 -43 232 -169 846 -181 880 -51 141 -207
219 -354 177z"/>
<path d="M3393 5752 c-298 -107 -321 -501 -36 -638 50 -24 70 -28 143 -28 72
0 94 5 140 27 90 44 146 105 180 194 62 164 -11 348 -172 429 -68 35 -183 42
-255 16z"/>
<path d="M2007 3709 c-75 -27 -154 -99 -192 -176 -24 -50 -29 -70 -29 -143 -1
-71 3 -94 25 -140 14 -31 41 -73 59 -93 93 -107 265 -143 396 -83 235 108 272
428 68 584 -90 70 -218 89 -327 51z"/>
<path d="M4775 3716 c-97 -31 -166 -89 -211 -178 -38 -74 -45 -190 -16 -266
66 -171 236 -261 411 -216 125 33 215 126 245 252 41 177 -62 355 -234 408
-51 15 -149 15 -195 0z"/>
</g>
</svg>
